<?xml version="1.0" encoding="UTF-8"?><svg id="Laag_1" xmlns="http://www.w3.org/2000/svg" viewBox="0 0 29.2108 18.1251"><defs><style>.cls-1{fill:#28282e;stroke-width:0px;}</style></defs><path id="Path_19" class="cls-1" d="m13.6,12.7868c.1,1.5073-.5,2.9141-1.6,3.9189s-2.6,1.5073-4.1,1.4068H0V.0252h7.5c1.6-.1005,3.1.4019,4.3,1.4068,1,1.0049,1.6,2.4116,1.5,3.8184,0,1.5073-.8,2.8136-2,3.6175,1.5.8039,2.4,2.3112,2.3,3.9189Zm-4.7-7.3354c0-1.0049-.5-1.5073-1.6-1.5073h-2.8v3.0146h2.8c1.1,0,1.6-.5024,1.6-1.5073Zm.3,7.1344c.1-.8039-.5-1.5073-1.2-1.6078h-3.4v3.2155h3c.8.1005,1.5-.4019,1.6-1.2058v-.4019h0Z"/><path id="Path_26" class="cls-1" d="m29.2,12.8126c.1,1.5-.5,2.9-1.6,3.9s-2.6,1.5-4.1,1.4h-7.9V.0126h7.5c1.6-.1,3.1.4,4.3,1.4,1,1,1.6,2.4,1.5,3.8,0,1.5-.8,2.8-2,3.6,1.5.8,2.4,2.4,2.3,4Zm-4.7-7.3c0-1-.5-1.5-1.6-1.5h-2.8v3h2.8c1.1,0,1.6-.5,1.6-1.5h0Zm.3,7c.1-.8-.5-1.5-1.2-1.6h-3.4v3.2h3c.8.1,1.5-.4,1.6-1.1v-.5h0Z"/></svg>